<svg xmlns="http://www.w3.org/2000/svg" xmlns:xlink="http://www.w3.org/1999/xlink" width="293" zoomAndPan="magnify" viewBox="0 0 219.75 143.249994" height="191" preserveAspectRatio="xMidYMid meet" version="1.0"><defs><g/><clipPath id="be67626b7c"><path d="M 0.449219 0 L 219 0 L 219 142.503906 L 0.449219 142.503906 Z M 0.449219 0 " clip-rule="nonzero"/></clipPath><clipPath id="8815df280f"><path d="M 0.449219 25.15625 L 204.824219 -0.0390625 L 219.246094 116.957031 L 14.871094 142.15625 Z M 0.449219 25.15625 " clip-rule="nonzero"/></clipPath><clipPath id="8af9a54fb1"><path d="M 6 10 L 209 10 L 209 140 L 6 140 Z M 6 10 " clip-rule="nonzero"/></clipPath><clipPath id="6f1c00a405"><path d="M 0.449219 25.15625 L 204.824219 -0.0390625 L 219.246094 116.957031 L 14.871094 142.15625 Z M 0.449219 25.15625 " clip-rule="nonzero"/></clipPath><clipPath id="5ce34b7626"><path d="M 204.5 0 L 0.125 25.199219 L 14.546875 142.195312 L 218.921875 116.996094 Z M 204.5 0 " clip-rule="nonzero"/></clipPath><clipPath id="750259d8f4"><path d="M 204.238281 0.03125 L 0.730469 25.121094 L 15.132812 141.957031 L 218.640625 116.867188 Z M 204.238281 0.03125 " clip-rule="nonzero"/></clipPath><clipPath id="6ee9631f92"><path d="M 9 16 L 204 16 L 204 132 L 9 132 Z M 9 16 " clip-rule="nonzero"/></clipPath><clipPath id="b1ca640392"><path d="M 0.449219 25.15625 L 204.824219 -0.0390625 L 219.246094 116.957031 L 14.871094 142.15625 Z M 0.449219 25.15625 " clip-rule="nonzero"/></clipPath><clipPath id="75c0862d76"><path d="M 204.5 0 L 0.125 25.199219 L 14.546875 142.195312 L 218.921875 116.996094 Z M 204.5 0 " clip-rule="nonzero"/></clipPath><clipPath id="86772544de"><path d="M 13 28 L 50 28 L 50 61 L 13 61 Z M 13 28 " clip-rule="nonzero"/></clipPath><clipPath id="04381c3046"><path d="M 0.449219 25.15625 L 204.824219 -0.0390625 L 219.246094 116.957031 L 14.871094 142.15625 Z M 0.449219 25.15625 " clip-rule="nonzero"/></clipPath><clipPath id="8b638b0dbb"><path d="M 204.5 0 L 0.125 25.199219 L 14.546875 142.195312 L 218.921875 116.996094 Z M 204.5 0 " clip-rule="nonzero"/></clipPath><clipPath id="39a7f2e4a2"><path d="M 147 77 L 198 77 L 198 120 L 147 120 Z M 147 77 " clip-rule="nonzero"/></clipPath><clipPath id="025eb3d7ec"><path d="M 0.449219 25.15625 L 204.824219 -0.0390625 L 219.246094 116.957031 L 14.871094 142.15625 Z M 0.449219 25.15625 " clip-rule="nonzero"/></clipPath><clipPath id="49be5aece4"><path d="M 204.5 0 L 0.125 25.199219 L 14.546875 142.195312 L 218.921875 116.996094 Z M 204.5 0 " clip-rule="nonzero"/></clipPath><clipPath id="83349ecb48"><rect x="0" width="219" y="0" height="143"/></clipPath></defs><g clip-path="url(#be67626b7c)"><g clip-path="url(#8815df280f)"><g transform="matrix(1, 0, 0, 1, 0.000000000000000056, -0.000000000000018301)"><g clip-path="url(#83349ecb48)"><g clip-path="url(#8af9a54fb1)"><g clip-path="url(#6f1c00a405)"><g clip-path="url(#5ce34b7626)"><g clip-path="url(#750259d8f4)"><path fill="#004aad" d="M 19.683594 26.582031 C 37.15625 18.570312 142.007812 5.480469 187.171875 13.207031 C 199.160156 15.257812 208.117188 25.363281 208.796875 37.507812 C 210.097656 60.636719 204.074219 99.550781 192.695312 111.894531 C 176.597656 129.359375 109.894531 128.992188 61.75 119.503906 C 49.488281 134.683594 25.339844 139.03125 25.339844 139.03125 C 35.046875 133.054688 40.867188 123.449219 44.257812 115.417969 C 25.339844 110.183594 11.921875 103.34375 10.238281 95.6875 C 6.335938 77.953125 0.207031 35.515625 19.683594 26.582031 " fill-opacity="1" fill-rule="nonzero"/></g></g></g></g><g clip-path="url(#6ee9631f92)"><g clip-path="url(#b1ca640392)"><g clip-path="url(#75c0862d76)"><path fill="#ffffff" d="M 155.277344 121.746094 C 176.0625 119.183594 184.511719 114.21875 187.9375 110.503906 C 197.832031 99.761719 204.226562 62.921875 202.914062 39.574219 C 202.328125 29.148438 194.761719 20.636719 184.507812 18.886719 C 157.460938 14.257812 109.417969 17.34375 73.476562 21.777344 C 48.09375 24.90625 27.496094 28.851562 20.992188 31.835938 C 12.257812 35.84375 10.054688 49.136719 9.742188 59.585938 C 9.296875 74.5 12.332031 90.113281 13.664062 96.132812 C 14.113281 98.1875 17.695312 105.472656 44.757812 112.957031 L 48.691406 114.046875 L 47.101562 117.804688 C 44.925781 122.96875 42.265625 127.589844 39.195312 131.585938 C 45.804688 128.765625 53.242188 124.476562 58.308594 118.203125 L 59.664062 116.519531 L 61.789062 116.9375 C 92.769531 123.042969 129.464844 124.929688 155.277344 121.746094 " fill-opacity="1" fill-rule="nonzero"/></g></g></g><g clip-path="url(#86772544de)"><g clip-path="url(#04381c3046)"><g clip-path="url(#8b638b0dbb)"><path fill="#004aad" d="M 49.851562 28.203125 C 42.78125 28.773438 35.820312 29.738281 28.832031 30.855469 C 22.3125 31.96875 16.769531 37.015625 15.121094 43.429688 C 14.976562 43.941406 14.804688 44.71875 14.738281 45.246094 C 14.09375 50.210938 13.625 55.191406 13.335938 60.203125 C 14.488281 55.628906 15.429688 51.019531 16.289062 46.398438 C 17.367188 39.773438 22.636719 34.175781 29.21875 32.871094 C 36.117188 31.488281 43.042969 30.082031 49.851562 28.203125 " fill-opacity="1" fill-rule="nonzero"/></g></g></g><g clip-path="url(#39a7f2e4a2)"><g clip-path="url(#025eb3d7ec)"><g clip-path="url(#49be5aece4)"><path fill="#004aad" d="M 197.082031 77.328125 C 194.515625 83.585938 192.214844 89.949219 189.964844 96.3125 C 188.886719 99.769531 187.3125 103.089844 184.875 105.792969 C 182.285156 108.738281 178.894531 111 175.179688 112.246094 C 174.894531 112.332031 174.445312 112.507812 174.160156 112.558594 C 165.382812 114.570312 156.652344 116.652344 147.992188 119.179688 C 157.121094 117.914062 166.195312 116.28125 175.222656 114.417969 C 176.148438 114.144531 177.128906 113.804688 178.015625 113.417969 C 184.160156 110.804688 189.046875 105.414062 191.023438 99.035156 C 193.226562 91.84375 195.285156 84.640625 197.082031 77.328125 " fill-opacity="1" fill-rule="nonzero"/></g></g></g></g></g></g></g><g fill="#004aad" fill-opacity="1"><g transform="translate(81.807253, 57.809981)"><g><path d="M 5.6875 -15.21875 L -0.234375 -15.09375 L -0.28125 -17.234375 L 13.984375 -17.546875 L 14.03125 -15.40625 L 8.125 -15.28125 L 8.453125 -0.1875 L 6.015625 -0.125 Z M 5.6875 -15.21875 "/></g></g></g><g fill="#004aad" fill-opacity="1"><g transform="translate(96.256383, 57.494106)"><g><path d="M 2.203125 -17.296875 L 4.671875 -17.34375 L 5.046875 -0.109375 L 2.578125 -0.0625 Z M 2.203125 -17.296875 "/></g></g></g><g fill="#004aad" fill-opacity="1"><g transform="translate(103.887095, 57.32729)"><g><path d="M 14.34375 -9.03125 L 16.703125 -9.09375 L 16.84375 -2.375 C 16.007812 -1.644531 15.03125 -1.078125 13.90625 -0.671875 C 12.78125 -0.265625 11.597656 -0.046875 10.359375 -0.015625 C 8.617188 0.015625 7.046875 -0.332031 5.640625 -1.0625 C 4.234375 -1.800781 3.113281 -2.832031 2.28125 -4.15625 C 1.457031 -5.476562 1.03125 -6.976562 1 -8.65625 C 0.957031 -10.320312 1.320312 -11.835938 2.09375 -13.203125 C 2.863281 -14.566406 3.941406 -15.640625 5.328125 -16.421875 C 6.710938 -17.210938 8.285156 -17.628906 10.046875 -17.671875 C 11.421875 -17.691406 12.675781 -17.488281 13.8125 -17.0625 C 14.945312 -16.632812 15.914062 -16 16.71875 -15.15625 L 15.21875 -13.59375 C 13.8125 -14.894531 12.132812 -15.523438 10.1875 -15.484375 C 8.875 -15.453125 7.703125 -15.140625 6.671875 -14.546875 C 5.640625 -13.960938 4.835938 -13.15625 4.265625 -12.125 C 3.691406 -11.101562 3.421875 -9.960938 3.453125 -8.703125 C 3.484375 -7.453125 3.804688 -6.328125 4.421875 -5.328125 C 5.035156 -4.335938 5.867188 -3.566406 6.921875 -3.015625 C 7.972656 -2.460938 9.144531 -2.203125 10.4375 -2.234375 C 11.988281 -2.265625 13.332031 -2.660156 14.46875 -3.421875 Z M 14.34375 -9.03125 "/></g></g></g><g fill="#004aad" fill-opacity="1"><g transform="translate(122.890035, 56.911863)"><g><path d="M 2.203125 -17.296875 L 4.671875 -17.34375 L 5.046875 -0.109375 L 2.578125 -0.0625 Z M 2.203125 -17.296875 "/></g></g></g><g fill="#004aad" fill-opacity="1"><g transform="translate(130.524856, 56.744957)"><g/></g></g><g fill="#004aad" fill-opacity="1"><g transform="translate(43.688167, 92.971819)"><g><path d="M 13.421875 -0.296875 L 8.09375 -7.296875 L 3.15625 -0.0625 L 0.3125 0 L 6.609375 -9 L 0.34375 -17.25 L 3.140625 -17.3125 L 8.109375 -10.796875 L 12.75 -17.515625 L 15.4375 -17.578125 L 9.546875 -9.140625 L 16.25 -0.359375 Z M 13.421875 -0.296875 "/></g></g></g><g fill="#004aad" fill-opacity="1"><g transform="translate(59.687881, 92.622046)"><g><path d="M 2.203125 -17.296875 L 4.671875 -17.34375 L 5.046875 -0.109375 L 2.578125 -0.0625 Z M 2.203125 -17.296875 "/></g></g></g><g fill="#004aad" fill-opacity="1"><g transform="translate(67.318593, 92.45523)"><g><path d="M 17.03125 -17.609375 L 17.40625 -0.375 L 15.390625 -0.34375 L 4.765625 -12.96875 L 5.046875 -0.109375 L 2.578125 -0.0625 L 2.203125 -17.296875 L 4.234375 -17.328125 L 14.859375 -4.71875 L 14.578125 -17.5625 Z M 17.03125 -17.609375 "/></g></g></g><g fill="#004aad" fill-opacity="1"><g transform="translate(87.306136, 92.018279)"><g/></g></g><g fill="#004aad" fill-opacity="1"><g transform="translate(93.927627, 91.873525)"><g><path d="M 10.296875 -0.015625 C 8.566406 0.015625 7 -0.332031 5.59375 -1.0625 C 4.195312 -1.800781 3.085938 -2.832031 2.265625 -4.15625 C 1.453125 -5.476562 1.03125 -6.976562 1 -8.65625 C 0.957031 -10.320312 1.316406 -11.832031 2.078125 -13.1875 C 2.835938 -14.539062 3.90625 -15.613281 5.28125 -16.40625 C 6.664062 -17.207031 8.21875 -17.625 9.9375 -17.65625 C 11.289062 -17.6875 12.53125 -17.488281 13.65625 -17.0625 C 14.78125 -16.632812 15.742188 -15.988281 16.546875 -15.125 L 14.984375 -13.53125 C 13.660156 -14.875 12.03125 -15.523438 10.09375 -15.484375 C 8.8125 -15.453125 7.65625 -15.132812 6.625 -14.53125 C 5.601562 -13.9375 4.8125 -13.125 4.25 -12.09375 C 3.6875 -11.070312 3.421875 -9.941406 3.453125 -8.703125 C 3.484375 -7.453125 3.800781 -6.328125 4.40625 -5.328125 C 5.007812 -4.335938 5.832031 -3.566406 6.875 -3.015625 C 7.925781 -2.460938 9.09375 -2.203125 10.375 -2.234375 C 12.289062 -2.273438 13.890625 -2.992188 15.171875 -4.390625 L 16.8125 -2.890625 C 16.039062 -1.984375 15.097656 -1.285156 13.984375 -0.796875 C 12.867188 -0.304688 11.640625 -0.046875 10.296875 -0.015625 Z M 10.296875 -0.015625 "/></g></g></g><g fill="#004aad" fill-opacity="1"><g transform="translate(111.724419, 91.484466)"><g><path d="M 17.03125 -17.609375 L 17.40625 -0.375 L 14.953125 -0.328125 L 14.78125 -8.015625 L 4.875 -7.796875 L 5.046875 -0.109375 L 2.578125 -0.0625 L 2.203125 -17.296875 L 4.671875 -17.34375 L 4.828125 -9.9375 L 14.734375 -10.15625 L 14.578125 -17.5625 Z M 17.03125 -17.609375 "/></g></g></g><g fill="#004aad" fill-opacity="1"><g transform="translate(131.711963, 91.047515)"><g><path d="M 13.46875 -4.609375 L 4.3125 -4.40625 L 2.515625 -0.0625 L -0.03125 0 L 7.40625 -17.40625 L 9.84375 -17.453125 L 18.046875 -0.390625 L 15.46875 -0.34375 Z M 12.5625 -6.5625 L 8.65625 -14.921875 L 5.125 -6.390625 Z M 4.03125 -21.9375 L 7.03125 -22.015625 L 10.453125 -18.875 L 8.25 -18.828125 Z M 4.03125 -21.9375 "/></g></g></g><g fill="#004aad" fill-opacity="1"><g transform="translate(149.484068, 90.658996)"><g><path d="M 10.359375 -0.015625 C 8.617188 0.015625 7.046875 -0.332031 5.640625 -1.0625 C 4.234375 -1.800781 3.113281 -2.832031 2.28125 -4.15625 C 1.457031 -5.488281 1.03125 -6.988281 1 -8.65625 C 0.957031 -10.3125 1.320312 -11.816406 2.09375 -13.171875 C 2.863281 -14.535156 3.9375 -15.613281 5.3125 -16.40625 C 6.6875 -17.207031 8.242188 -17.625 9.984375 -17.65625 C 11.710938 -17.695312 13.28125 -17.347656 14.6875 -16.609375 C 16.101562 -15.878906 17.21875 -14.851562 18.03125 -13.53125 C 18.84375 -12.207031 19.269531 -10.710938 19.3125 -9.046875 C 19.34375 -7.367188 18.976562 -5.851562 18.21875 -4.5 C 17.46875 -3.144531 16.398438 -2.066406 15.015625 -1.265625 C 13.640625 -0.472656 12.085938 -0.0546875 10.359375 -0.015625 Z M 10.3125 -2.21875 C 11.582031 -2.25 12.71875 -2.5625 13.71875 -3.15625 C 14.71875 -3.75 15.5 -4.554688 16.0625 -5.578125 C 16.625 -6.609375 16.890625 -7.75 16.859375 -9 C 16.828125 -10.238281 16.507812 -11.351562 15.90625 -12.34375 C 15.300781 -13.34375 14.488281 -14.117188 13.46875 -14.671875 C 12.445312 -15.234375 11.300781 -15.5 10.03125 -15.46875 C 8.769531 -15.445312 7.628906 -15.132812 6.609375 -14.53125 C 5.597656 -13.9375 4.8125 -13.125 4.25 -12.09375 C 3.6875 -11.070312 3.421875 -9.941406 3.453125 -8.703125 C 3.484375 -7.453125 3.800781 -6.328125 4.40625 -5.328125 C 5.007812 -4.335938 5.828125 -3.566406 6.859375 -3.015625 C 7.898438 -2.460938 9.050781 -2.195312 10.3125 -2.21875 Z M 10.3125 -2.21875 "/></g></g></g><g fill="#004aad" fill-opacity="1"><g transform="translate(170.160845, 90.206977)"><g><path d="M 1.546875 -17.28125 L 4.328125 -17.34375 L 4.109375 -5.53125 L 2.234375 -5.484375 Z M 3.328125 0.0625 C 2.867188 0.0703125 2.476562 -0.0664062 2.15625 -0.359375 C 1.84375 -0.648438 1.679688 -1.015625 1.671875 -1.453125 C 1.660156 -1.898438 1.804688 -2.28125 2.109375 -2.59375 C 2.421875 -2.90625 2.804688 -3.066406 3.265625 -3.078125 C 3.722656 -3.085938 4.101562 -2.941406 4.40625 -2.640625 C 4.707031 -2.347656 4.863281 -1.976562 4.875 -1.53125 C 4.882812 -1.09375 4.738281 -0.71875 4.4375 -0.40625 C 4.132812 -0.101562 3.765625 0.0507812 3.328125 0.0625 Z M 3.328125 0.0625 "/></g></g></g></svg>